<?xml version="1.0" encoding="UTF-8"?>
<svg id="Layer_1" xmlns="http://www.w3.org/2000/svg" version="1.1" viewBox="0 0 192.7 207.55">
  <!-- Generator: Adobe Illustrator 29.8.1, SVG Export Plug-In . SVG Version: 2.1.1 Build 2)  -->
  <path d="M86.85.04c10.58-.13,21.07.11,31.6.42,17.06.5,31.44-.22,46.43,9.25,26.17,16.53,26.77,44.89,27.61,72.95.69,23.06.63,57.1-14.4,75.82-22.35,27.86-57.62,17.19-88.56,19.44-9.33,6.52-16.23,15.8-24.59,23.41-3.47,3.17-10.01,9.58-14.15,4.05s-.76-18.73-1.85-25.51c-.36-2.25-1.46-2.24-3.39-2.85-5.35-1.71-8.73-2.26-13.87-5.09C4.5,156.94,1.22,131.03.24,102.57c-.65-19.06-.12-39.75,3.68-58.49C8.75,20.27,27.97,3.95,51.97,1.41,63.12.23,75.57.18,86.84.04h.01ZM152.48,55.59c-3.75-7.19-5.44-17.41-11.82-22.86-7.03-6.01-26.68-6.74-35.88-7.08-12.26-.46-39.07-.93-49.54,5.18-8.81,5.14-10.43,16.98-15.14,25.2-4.8-.79-12.99-3.38-14.76,3.22-1.01,3.75.71,6.54,4.04,8.2.75.38,5.43,1.82,5.44,2.24-2.97,4.93-6.92,9.41-8.43,15.09-3.12,11.73-3.19,38.26.39,49.83,2.04,6.59,8.72,6.39,14.65,6.01,2.76-.18,7.69-.81,8.68-3.8,1.84-5.54-.41-14.48.61-20.51,1.24-7.36,9.11-17.91,17.51-13.79,4.82,2.36,4.76,7.11,8.42,9.34,1.9,1.16,4.38,1.63,6.06,3.3s2.5,5.19,4.18,6.62c1.24,1.05,3.11,1.06,4.57,1.67,3.65,1.53,3.51,4.96,6,7.44,2.11,2.11,11.01,8.71,13.67,9.13,5.23.81,7.22-4.51,4.22-8.29-3.72-4.68-10.3-9.09-14.77-13.31-1.09-1.03-4.93-4.6-4.8-5.99.1-1.05,1.7-2.5,2.89-2.18,1.82.49,6.3,5.28,7.8,6.85,3.54,3.69,10.88,13.61,16.08,13.7,3.43.06,4.59-2.87,4.18-5.88-.65-4.69-15-15.36-18.69-19.95-2.27-2.82-1.57-4.79,2.29-3.73l19.95,18.69c4.46,2.84,10.09-2.14,7.28-6.8-9.17-8.46-17.75-18.22-27-26.52-1.1-.99-2.64-2.84-4.1-1.93-7.25,7.36-16,19.68-27.69,12.11-6.14-3.97-3.67-9.49-.22-14.34s8.44-8.84,12.43-13.48c-9.59-7.73-23.15-2.67-34.4-5.19-.91-.2-5.78-1.66-5.85-2.49,2.25-4.13,3.1-8.83,4.74-13.21.96-2.56,2.96-7.86,5.94-8.46,18.3-.22,36.61.1,54.92-.04,4.15-.03,9.79-.88,13.8.1,8.43,2.06,9.06,15.74,12.23,22.2-10.59,4.99-22.54,1.95-33.73,2.63-6.57.4-9.67,4.17-14.16,8.4-3.08,2.9-12.67,12.05-13.74,15.54s.94,6.28,4.54,6.16c5.53-.18,12.2-8.73,16.28-12.22,2.89-2.47,6.83-4.54,10.54-2.61l30.79,30.89c3.08,4.91-.34,8.32-1.47,12.78-2.02,8.01-1.29,16.32,8.27,17.62,14.66,2,17.62-4.54,19.05-17.43,1.28-11.57,1.61-32.56-3.13-43.14-1.85-4.13-4.72-7.72-6.45-11.91,2.99-.35,7.67-3.68,8.29-6.71.85-4.1-2.08-7.53-6.24-7.46-1.8.03-7.62,2.19-8.71,1.15v.02h0ZM64.03,106.34c-4.09.84-10.78,10.51-5.87,13.68,7.31,4.72,15.46-9.42,9.77-13.13-1.02-.66-2.72-.8-3.89-.56h-.01ZM79.14,117.89c-1.12-1.12-2.82-1.18-4.3-.98-6.45.88-11.7,13.8-3.15,14.55,6,.53,11.24-9.79,7.45-13.58h0ZM85.39,126.98c-1.83.37-5.28,3.98-6.13,5.63-3.21,6.22,2.03,10.72,7.71,6.99,1.87-1.23,3.84-3.51,4.37-5.71.97-4-1.52-7.82-5.95-6.91ZM97.4,136.83c-3.81.53-10.51,7.56-7.97,11.44.55.85,3.15,2.87,4.12,3.08,3.51.74,8.21-4.52,9.07-7.62,1.03-3.71-1.01-7.49-5.22-6.9h0Z" fill="#427454"/>
  <path d="M152.48,55.59c1.09,1.05,6.91-1.12,8.71-1.15,4.16-.06,7.09,3.36,6.24,7.46-.62,3.03-5.31,6.36-8.29,6.71,1.73,4.19,4.59,7.78,6.45,11.91,4.73,10.57,4.41,31.57,3.13,43.14-1.43,12.89-4.39,19.42-19.05,17.43-9.55-1.3-10.28-9.61-8.27-17.62,1.13-4.47,4.55-7.87,1.47-12.78l-30.79-30.89c-3.71-1.92-7.66.14-10.54,2.61-4.08,3.49-10.75,12.04-16.28,12.22-3.6.11-5.59-2.75-4.54-6.16s10.66-12.64,13.74-15.54c4.49-4.24,7.59-8,14.16-8.4,11.2-.68,23.14,2.35,33.73-2.63-3.17-6.47-3.8-20.14-12.23-22.2-4-.98-9.65-.13-13.8-.1-18.3.14-36.61-.17-54.92.04-2.98.6-4.98,5.9-5.94,8.46-1.63,4.38-2.49,9.07-4.74,13.21.07.83,4.94,2.28,5.85,2.49,11.25,2.52,24.81-2.54,34.4,5.19-3.99,4.64-8.86,8.48-12.43,13.48s-5.92,10.36.22,14.34c11.69,7.56,20.44-4.76,27.69-12.11,1.46-.92,3,.94,4.1,1.93,9.25,8.31,17.82,18.06,27,26.52,2.81,4.66-2.82,9.64-7.28,6.8l-19.95-18.69c-3.85-1.07-4.56.9-2.29,3.73,3.69,4.59,18.04,15.26,18.69,19.95.42,3.01-.75,5.94-4.18,5.88-5.2-.09-12.54-10.01-16.08-13.7-1.5-1.56-5.98-6.36-7.8-6.85-1.18-.32-2.79,1.13-2.89,2.18-.13,1.39,3.71,4.96,4.8,5.99,4.46,4.22,11.04,8.63,14.77,13.31,3,3.78,1.01,9.1-4.22,8.29-2.66-.41-11.56-7.02-13.67-9.13-2.49-2.48-2.35-5.91-6-7.44-1.46-.61-3.33-.63-4.57-1.67-1.69-1.43-2.48-4.92-4.18-6.62s-4.15-2.15-6.06-3.3c-3.67-2.23-3.6-6.97-8.42-9.34-8.4-4.12-16.27,6.43-17.51,13.79-1.02,6.03,1.23,14.97-.61,20.51-.99,2.99-5.93,3.62-8.68,3.8-5.93.38-12.61.58-14.65-6.01-3.59-11.57-3.51-38.1-.39-49.83,1.51-5.68,5.45-10.16,8.43-15.09,0-.42-4.69-1.86-5.44-2.24-3.33-1.66-5.04-4.45-4.04-8.2,1.77-6.6,9.96-4.01,14.76-3.22,4.71-8.22,6.33-20.06,15.14-25.2,10.47-6.11,37.28-5.64,49.54-5.18,9.2.34,28.85,1.07,35.88,7.08,6.38,5.45,8.07,15.67,11.82,22.86v-.02h0ZM144.69,82.84c-11.71,1.02-11.89,18.04,0,19.55,13.84,1.75,11.9-20.58,0-19.55ZM46.28,83.55c-8.81,1.21-11.01,13.1-3.61,17.65,3.92,2.41,10.69,3.02,12.84-1.95,3.04-7.01-.27-16.93-9.22-15.7h-.01Z" fill="#fff"/>
  <path d="M97.4,136.83c4.22-.58,6.25,3.19,5.22,6.9-.86,3.1-5.56,8.36-9.07,7.62-.97-.2-3.57-2.23-4.12-3.08-2.54-3.89,4.16-10.92,7.97-11.44h0Z" fill="#fff"/>
  <path d="M79.14,117.89c3.79,3.78-1.45,14.1-7.45,13.58-8.54-.75-3.29-13.67,3.15-14.55,1.48-.2,3.18-.14,4.3.98h0Z" fill="#fff"/>
  <path d="M64.03,106.34c1.17-.24,2.88-.1,3.89.56,5.69,3.71-2.46,17.85-9.77,13.13-4.91-3.17,1.78-12.85,5.87-13.68h.01Z" fill="#fff"/>
  <path d="M85.39,126.98c4.43-.9,6.92,2.91,5.95,6.91-.53,2.2-2.5,4.48-4.37,5.71-5.69,3.73-10.93-.78-7.71-6.99.85-1.65,4.3-5.25,6.13-5.63Z" fill="#fff"/>
  <path d="M144.69,82.84c11.89-1.04,13.83,21.3,0,19.55-11.88-1.5-11.7-18.52,0-19.55Z" fill="#427454"/>
  <path d="M46.28,83.55c8.95-1.23,12.26,8.69,9.22,15.7-2.15,4.97-8.92,4.35-12.84,1.95-7.4-4.55-5.2-16.44,3.61-17.65h.01Z" fill="#427454"/>
</svg>