<?xml version="1.0" encoding="UTF-8"?>
<svg id="Layer_1" xmlns="http://www.w3.org/2000/svg" version="1.1" viewBox="0 0 515.42 230.74">
  <!-- Generator: Adobe Illustrator 29.8.1, SVG Export Plug-In . SVG Version: 2.1.1 Build 2)  -->
  <g>
    <path d="M165.36,68.53c1.09,1.05,6.91-1.12,8.71-1.15,4.16-.06,7.09,3.36,6.24,7.46-.62,3.03-5.31,6.36-8.29,6.71,1.73,4.19,4.59,7.78,6.45,11.91,4.73,10.57,4.41,31.57,3.13,43.14-1.43,12.89-4.39,19.42-19.05,17.43-9.55-1.3-10.28-9.61-8.27-17.62,1.13-4.47,4.55-7.87,1.47-12.78l-30.79-30.89c-3.71-1.92-7.66.14-10.54,2.61-4.08,3.49-10.75,12.04-16.28,12.22-3.6.11-5.59-2.75-4.54-6.16s10.66-12.64,13.74-15.54c4.49-4.24,7.59-8,14.16-8.4,11.2-.68,23.14,2.35,33.73-2.63-3.17-6.47-3.8-20.14-12.23-22.2-4-.98-9.65-.13-13.8-.1-18.3.14-36.61-.17-54.92.04-2.98.6-4.98,5.9-5.94,8.46-1.63,4.38-2.49,9.07-4.74,13.21.07.83,4.94,2.28,5.85,2.49,11.25,2.52,24.81-2.54,34.4,5.19-3.99,4.64-8.86,8.48-12.43,13.48s-5.92,10.36.22,14.34c11.69,7.56,20.44-4.76,27.69-12.11,1.46-.92,3,.94,4.1,1.93,9.25,8.31,17.82,18.06,27,26.52,2.81,4.66-2.82,9.64-7.28,6.8l-19.95-18.69c-3.85-1.07-4.56.9-2.29,3.73,3.69,4.59,18.04,15.26,18.69,19.95.42,3.01-.75,5.94-4.18,5.88-5.2-.09-12.54-10.01-16.08-13.7-1.5-1.56-5.98-6.36-7.8-6.85-1.18-.32-2.79,1.13-2.89,2.18-.13,1.39,3.71,4.96,4.8,5.99,4.46,4.22,11.04,8.63,14.77,13.31,3,3.78,1.01,9.1-4.22,8.29-2.66-.41-11.56-7.02-13.67-9.13-2.49-2.48-2.35-5.91-6-7.44-1.46-.61-3.33-.63-4.57-1.67-1.69-1.43-2.48-4.92-4.18-6.62s-4.15-2.15-6.06-3.3c-3.67-2.23-3.6-6.97-8.42-9.34-8.4-4.12-16.27,6.43-17.51,13.79-1.02,6.03,1.23,14.97-.61,20.51-.99,2.99-5.93,3.62-8.68,3.8-5.93.38-12.61.58-14.65-6.01-3.59-11.57-3.51-38.1-.39-49.83,1.51-5.68,5.45-10.16,8.43-15.09,0-.42-4.69-1.86-5.44-2.24-3.33-1.66-5.04-4.45-4.04-8.2,1.77-6.6,9.96-4.01,14.76-3.22,4.71-8.22,6.33-20.06,15.14-25.2,10.47-6.11,37.28-5.64,49.54-5.18,9.2.34,28.85,1.07,35.88,7.08,6.38,5.45,8.07,15.67,11.82,22.86v-.02ZM157.57,95.78c-11.71,1.02-11.89,18.04,0,19.55,13.84,1.75,11.9-20.58,0-19.55ZM59.16,96.49c-8.81,1.21-11.01,13.1-3.61,17.65,3.92,2.41,10.69,3.02,12.84-1.95,3.04-7.01-.27-16.93-9.22-15.7h-.01Z" fill="#fff"/>
    <path d="M110.28,149.77c4.22-.58,6.25,3.19,5.22,6.9-.86,3.1-5.56,8.36-9.07,7.62-.97-.2-3.57-2.23-4.12-3.08-2.54-3.89,4.16-10.92,7.97-11.44h0Z" fill="#fff"/>
    <path d="M92.02,130.83c3.79,3.78-1.45,14.1-7.45,13.58-8.54-.75-3.29-13.67,3.15-14.55,1.48-.2,3.18-.14,4.3.98h0Z" fill="#fff"/>
    <path d="M76.91,119.28c1.17-.24,2.88-.1,3.89.56,5.69,3.71-2.46,17.85-9.77,13.13-4.91-3.17,1.78-12.85,5.87-13.68h.01Z" fill="#fff"/>
    <path d="M98.27,139.92c4.43-.9,6.92,2.91,5.95,6.91-.53,2.2-2.5,4.48-4.37,5.71-5.69,3.73-10.93-.78-7.71-6.99.85-1.65,4.3-5.25,6.13-5.63Z" fill="#fff"/>
    <g>
      <path d="M205.37,95.6c-.84-28.06-1.44-56.42-27.61-72.95-14.99-9.47-29.37-8.75-46.43-9.25-10.53-.31-21.02-.55-31.6-.42-11.27.14-23.72.19-34.87,1.37-23.99,2.54-43.22,18.87-48.05,42.67-3.8,18.73-4.33,39.43-3.68,58.49.98,28.46,4.25,54.37,31.44,69.36,5.14,2.83,8.52,3.38,13.87,5.09,1.93.61,3.03.6,3.39,2.85,1.08,6.78-2.25,20.03,1.85,25.51,4.14,5.53,10.67-.88,14.15-4.05,8.35-7.62,15.26-16.9,24.59-23.41,30.94-2.25,66.21,8.42,88.56-19.44,15.02-18.73,15.09-52.77,14.4-75.82h-.01ZM71.04,132.97c-4.91-3.17,1.78-12.85,5.87-13.68,1.17-.24,2.88-.1,3.89.56,5.69,3.71-2.46,17.85-9.77,13.13h.01ZM84.57,144.41c-8.54-.75-3.29-13.67,3.15-14.55,1.48-.2,3.18-.14,4.3.98,3.79,3.78-1.45,14.1-7.45,13.58h0ZM92.14,145.55c.85-1.65,4.3-5.25,6.13-5.63,4.43-.9,6.92,2.91,5.95,6.91-.53,2.2-2.5,4.48-4.37,5.71-5.69,3.73-10.93-.78-7.71-6.99ZM115.5,156.67c-.86,3.1-5.56,8.36-9.07,7.62-.97-.2-3.57-2.23-4.12-3.08-2.54-3.89,4.16-10.92,7.97-11.44,4.22-.58,6.25,3.19,5.22,6.9h0ZM181.59,136.6c-1.43,12.89-4.39,19.42-19.05,17.43-9.55-1.3-10.28-9.61-8.27-17.62,1.13-4.47,4.55-7.87,1.47-12.78l-30.79-30.89c-3.71-1.92-7.66.14-10.54,2.61-4.08,3.49-10.75,12.04-16.28,12.22-3.6.11-5.59-2.75-4.54-6.16,1.07-3.49,10.66-12.64,13.74-15.54,4.49-4.24,7.59-8,14.16-8.4,11.2-.68,23.14,2.35,33.73-2.63-3.17-6.47-3.8-20.14-12.23-22.2-4-.98-9.65-.13-13.8-.1-18.3.14-36.61-.17-54.92.04-2.98.6-4.98,5.9-5.94,8.46-1.63,4.38-2.49,9.07-4.74,13.21.07.83,4.94,2.28,5.85,2.49,11.25,2.52,24.81-2.54,34.4,5.19-3.99,4.64-8.86,8.48-12.43,13.48-3.46,4.85-5.92,10.36.22,14.34,11.69,7.56,20.44-4.76,27.69-12.11,1.46-.92,3,.94,4.1,1.93,9.25,8.31,17.82,18.06,27,26.52,2.81,4.66-2.82,9.64-7.28,6.8l-19.95-18.69c-3.85-1.07-4.56.9-2.29,3.73,3.69,4.59,18.04,15.26,18.69,19.95.42,3.01-.75,5.94-4.18,5.88-5.2-.09-12.54-10.01-16.08-13.7-1.5-1.56-5.98-6.36-7.8-6.85-1.18-.32-2.79,1.13-2.89,2.18-.13,1.39,3.71,4.96,4.8,5.99,4.46,4.22,11.04,8.63,14.77,13.31,3,3.78,1.01,9.1-4.22,8.29-2.66-.41-11.56-7.02-13.67-9.13-2.49-2.48-2.35-5.91-6-7.44-1.46-.61-3.33-.63-4.57-1.67-1.69-1.43-2.48-4.92-4.18-6.62-1.68-1.67-4.15-2.15-6.06-3.3-3.67-2.23-3.6-6.97-8.42-9.34-8.4-4.12-16.27,6.43-17.51,13.79-1.02,6.03,1.23,14.97-.61,20.51-.99,2.99-5.93,3.62-8.68,3.8-5.93.38-12.61.58-14.65-6.01-3.59-11.57-3.51-38.1-.39-49.83,1.51-5.68,5.45-10.16,8.43-15.09,0-.42-4.69-1.86-5.44-2.24-3.33-1.66-5.04-4.45-4.04-8.2,1.77-6.6,9.96-4.01,14.76-3.22,4.71-8.22,6.33-20.06,15.14-25.2,10.47-6.11,37.28-5.64,49.54-5.18,9.2.34,28.85,1.07,35.88,7.08,6.38,5.45,8.07,15.67,11.82,22.86,1.09,1.05,6.91-1.12,8.71-1.15,4.16-.06,7.09,3.36,6.24,7.46-.62,3.03-5.31,6.36-8.29,6.71,1.73,4.19,4.59,7.78,6.45,11.91,4.73,10.57,4.41,31.57,3.13,43.14v-.02Z" fill="#427454"/>
      <path d="M157.57,95.78c-11.71,1.02-11.89,18.04,0,19.55,13.84,1.75,11.9-20.58,0-19.55Z" fill="#427454"/>
      <path d="M59.16,96.49c-8.81,1.21-11.01,13.1-3.61,17.65,3.92,2.41,10.69,3.02,12.84-1.95,3.04-7.01-.27-16.93-9.22-15.7h-.01Z" fill="#427454"/>
    </g>
  </g>
  <g>
    <path d="M224.04,96.39c-.59,0-1.09-.21-1.5-.62s-.62-.91-.62-1.5v-57.29c0-.65.21-1.17.62-1.58.41-.41.91-.62,1.5-.62h38.19c.64,0,1.17.21,1.58.62.41.41.62.94.62,1.58v6.16c0,.65-.21,1.16-.62,1.54s-.94.57-1.58.57h-28.25v16.72h26.49c.64,0,1.17.21,1.58.62.41.41.62.94.62,1.58v6.16c0,.59-.21,1.09-.62,1.5s-.94.62-1.58.62h-26.49v21.82c0,.59-.21,1.09-.62,1.5s-.94.62-1.58.62h-7.74,0Z"/>
    <path d="M274.38,96.39c-.59,0-1.09-.21-1.5-.62s-.62-.91-.62-1.5v-41.45c0-.65.21-1.17.62-1.58s.91-.62,1.5-.62h7.13c.59,0,1.1.21,1.54.62.44.41.66.94.66,1.58v3.61c1.35-1.88,3.09-3.31,5.24-4.31,2.14-1,4.62-1.5,7.44-1.5h3.61c.64,0,1.16.21,1.54.62s.57.91.57,1.5v6.34c0,.59-.19,1.09-.57,1.5s-.9.62-1.54.62h-6.86c-2.82,0-5,.78-6.56,2.33s-2.33,3.74-2.33,6.56v24.2c0,.59-.21,1.09-.62,1.5s-.94.62-1.58.62h-7.66v-.02Z"/>
    <path d="M310.28,43.06c-.59,0-1.09-.2-1.5-.62-.41-.41-.62-.91-.62-1.5v-6.34c0-.59.21-1.08.62-1.5.41-.41.91-.62,1.5-.62h8.01c.64,0,1.17.21,1.58.62.41.41.62.91.62,1.5v6.34c0,.59-.21,1.09-.62,1.5s-.94.62-1.58.62h-8.01ZM310.64,96.39c-.59,0-1.09-.21-1.5-.62s-.62-.91-.62-1.5v-41.54c0-.59.21-1.08.62-1.5s.91-.62,1.5-.62h7.3c.65,0,1.16.21,1.54.62s.57.91.57,1.5v41.54c0,.59-.19,1.09-.57,1.5s-.89.62-1.54.62h-7.3Z"/>
    <path d="M351.03,97.27c-6.51,0-11.67-1.88-15.49-5.63-3.81-3.75-5.87-9.09-6.16-16.02-.06-.59-.09-1.33-.09-2.24s.03-1.63.09-2.16c.23-4.46,1.25-8.29,3.04-11.48,1.79-3.2,4.27-5.66,7.44-7.39,3.17-1.73,6.89-2.6,11.18-2.6,4.75,0,8.74.98,11.97,2.95,3.23,1.97,5.66,4.69,7.3,8.18s2.46,7.52,2.46,12.1v1.85c0,.59-.21,1.09-.62,1.5s-.94.62-1.58.62h-29.22v.7c.06,2.05.45,3.95,1.19,5.68.73,1.73,1.82,3.12,3.26,4.18,1.44,1.06,3.15,1.58,5.15,1.58,1.64,0,3.02-.25,4.14-.75,1.11-.5,2.02-1.07,2.73-1.72.7-.65,1.2-1.17,1.5-1.58.53-.7.95-1.13,1.28-1.28.32-.15.81-.22,1.45-.22h7.57c.59,0,1.07.18,1.45.53.38.35.54.79.48,1.32-.06.94-.54,2.08-1.45,3.43-.91,1.35-2.22,2.67-3.92,3.96-1.7,1.29-3.83,2.36-6.38,3.21-2.55.85-5.47,1.28-8.76,1.28h0ZM341.35,69.55h19.45v-.26c0-2.29-.38-4.3-1.14-6.03-.76-1.73-1.88-3.08-3.34-4.05-1.47-.97-3.23-1.45-5.28-1.45s-3.81.48-5.28,1.45c-1.47.97-2.57,2.32-3.3,4.05-.73,1.73-1.1,3.74-1.1,6.03v.26h0Z"/>
    <path d="M383.76,96.39c-.59,0-1.09-.21-1.5-.62s-.62-.91-.62-1.5v-41.54c0-.59.21-1.08.62-1.5s.91-.62,1.5-.62h7.22c.59,0,1.08.21,1.5.62.41.41.62.91.62,1.5v3.61c1.52-1.88,3.48-3.45,5.85-4.71,2.38-1.26,5.32-1.89,8.84-1.89s6.69.81,9.33,2.42,4.68,3.89,6.12,6.82,2.16,6.45,2.16,10.56v24.73c0,.59-.21,1.09-.62,1.5s-.91.62-1.5.62h-7.74c-.59,0-1.09-.21-1.5-.62s-.62-.91-.62-1.5v-24.2c0-3.4-.84-6.07-2.51-8.01s-4.09-2.9-7.26-2.9-5.49.97-7.3,2.9c-1.82,1.94-2.73,4.61-2.73,8.01v24.2c0,.59-.21,1.09-.62,1.5s-.91.62-1.5.62h-7.74,0Z"/>
    <path d="M453.11,97.27c-3.05,0-5.74-.51-8.05-1.54-2.32-1.03-4.24-2.48-5.76-4.36-1.53-1.88-2.7-4.09-3.52-6.64-.82-2.55-1.29-5.35-1.41-8.4-.06-1.06-.09-2.01-.09-2.86s.03-1.8.09-2.86c.12-2.93.57-5.66,1.36-8.18s1.96-4.74,3.52-6.64c1.55-1.91,3.49-3.39,5.81-4.44,2.32-1.06,5-1.58,8.05-1.58s5.85.54,8.05,1.63c2.2,1.09,4.03,2.48,5.5,4.18v-19.54c0-.59.19-1.08.57-1.5.38-.41.89-.62,1.54-.62h7.48c.59,0,1.08.21,1.5.62.41.41.62.91.62,1.5v58.26c0,.59-.21,1.09-.62,1.5s-.91.62-1.5.62h-6.95c-.65,0-1.16-.21-1.54-.62s-.57-.91-.57-1.5v-3.26c-1.47,1.82-3.33,3.32-5.59,4.49s-5.09,1.76-8.49,1.76v-.02ZM456.36,87.85c2.46,0,4.43-.56,5.9-1.67s2.55-2.54,3.26-4.27c.7-1.73,1.08-3.5,1.14-5.32.06-1.06.09-2.18.09-3.39s-.03-2.33-.09-3.39c-.06-1.76-.47-3.45-1.23-5.06s-1.88-2.95-3.34-4c-1.47-1.06-3.37-1.58-5.72-1.58s-4.42.54-5.85,1.63c-1.44,1.09-2.48,2.51-3.12,4.27-.65,1.76-1.03,3.7-1.14,5.81-.06,1.76-.06,3.52,0,5.28.12,2.11.5,4.05,1.14,5.81s1.69,3.18,3.12,4.27c1.44,1.09,3.39,1.63,5.85,1.63v-.02Z"/>
    <path d="M224.04,171.39c-.59,0-1.09-.21-1.5-.62s-.62-.91-.62-1.5v-57.29c0-.64.21-1.17.62-1.58s.91-.62,1.5-.62h22.79c7.1,0,12.7,1.64,16.81,4.93s6.16,8.07,6.16,14.34c0,4.34-1.07,7.95-3.21,10.82-2.14,2.88-5,4.96-8.58,6.25l12.85,22.44c.18.35.26.68.26.97,0,.53-.19.97-.57,1.32-.38.35-.81.53-1.28.53h-8.01c-1,0-1.76-.26-2.29-.79s-.94-1.06-1.23-1.58l-11.35-20.86h-12.23v21.12c0,.59-.19,1.09-.57,1.5s-.9.62-1.54.62h-8.01ZM234.16,138.21h12.41c3.58,0,6.25-.81,8.01-2.42s2.64-3.89,2.64-6.82-.87-5.24-2.6-6.91-4.42-2.51-8.05-2.51h-12.41v18.66h0Z"/>
    <path d="M298.84,172.27c-6.51,0-11.67-1.88-15.49-5.63-3.81-3.75-5.87-9.09-6.16-16.02-.06-.59-.09-1.33-.09-2.24s.03-1.63.09-2.16c.23-4.46,1.25-8.29,3.04-11.48,1.79-3.2,4.27-5.66,7.44-7.39,3.17-1.73,6.89-2.6,11.18-2.6,4.75,0,8.74.98,11.97,2.95,3.23,1.97,5.66,4.69,7.3,8.18s2.46,7.52,2.46,12.1v1.85c0,.59-.21,1.09-.62,1.5s-.94.62-1.58.62h-29.22v.7c.06,2.05.45,3.95,1.19,5.68.73,1.73,1.82,3.12,3.26,4.18,1.44,1.06,3.15,1.58,5.15,1.58,1.64,0,3.02-.25,4.14-.75,1.11-.5,2.02-1.07,2.73-1.72s1.2-1.17,1.5-1.58c.53-.7.95-1.13,1.28-1.28.32-.15.81-.22,1.45-.22h7.57c.59,0,1.07.18,1.45.53.38.35.54.79.48,1.32-.06.94-.54,2.08-1.45,3.43-.91,1.35-2.22,2.67-3.92,3.96-1.7,1.29-3.83,2.36-6.38,3.21-2.55.85-5.47,1.28-8.76,1.28h0ZM289.16,144.55h19.45v-.26c0-2.29-.38-4.3-1.14-6.03-.76-1.73-1.88-3.08-3.34-4.05-1.47-.97-3.23-1.45-5.28-1.45s-3.81.48-5.28,1.45c-1.47.97-2.57,2.32-3.3,4.05-.73,1.73-1.1,3.74-1.1,6.03v.26h0Z"/>
    <path d="M331.58,171.39c-.59,0-1.09-.21-1.5-.62s-.62-.91-.62-1.5v-41.54c0-.58.21-1.08.62-1.5s.91-.62,1.5-.62h7.22c.59,0,1.08.21,1.5.62.41.41.62.91.62,1.5v3.61c1.52-1.88,3.48-3.45,5.85-4.71,2.38-1.26,5.32-1.89,8.84-1.89s6.69.81,9.33,2.42,4.68,3.89,6.12,6.82,2.16,6.46,2.16,10.56v24.73c0,.59-.21,1.09-.62,1.5s-.91.62-1.5.62h-7.74c-.59,0-1.09-.21-1.5-.62s-.62-.91-.62-1.5v-24.2c0-3.4-.84-6.07-2.51-8.01s-4.09-2.9-7.26-2.9-5.49.97-7.3,2.9c-1.82,1.94-2.73,4.61-2.73,8.01v24.2c0,.59-.21,1.09-.62,1.5s-.91.62-1.5.62h-7.74,0Z"/>
    <path d="M404.09,171.39c-3.52,0-6.48-.62-8.89-1.85s-4.19-3.07-5.37-5.5c-1.17-2.43-1.76-5.47-1.76-9.11v-19.98h-6.95c-.59,0-1.09-.21-1.5-.62s-.62-.94-.62-1.58v-5.02c0-.58.21-1.08.62-1.5.41-.41.91-.62,1.5-.62h6.95v-14.61c0-.59.19-1.08.57-1.5.38-.41.89-.62,1.54-.62h7.13c.59,0,1.08.21,1.5.62.41.41.62.91.62,1.5v14.61h11c.59,0,1.08.21,1.5.62.41.41.62.91.62,1.5v5.02c0,.65-.21,1.17-.62,1.58-.41.41-.91.62-1.5.62h-11v19.1c0,2.41.42,4.28,1.28,5.63.85,1.35,2.33,2.02,4.44,2.02h6.07c.59,0,1.08.21,1.5.62.41.41.62.91.62,1.5v5.46c0,.59-.21,1.09-.62,1.5s-.91.62-1.5.62h-7.13,0Z"/>
    <path d="M440.43,172.27c-6.51,0-11.67-1.88-15.49-5.63-3.81-3.75-5.87-9.09-6.16-16.02-.06-.59-.09-1.33-.09-2.24s.03-1.63.09-2.16c.23-4.46,1.25-8.29,3.04-11.48,1.79-3.2,4.27-5.66,7.44-7.39,3.17-1.73,6.89-2.6,11.18-2.6,4.75,0,8.74.98,11.97,2.95,3.23,1.97,5.66,4.69,7.3,8.18s2.46,7.52,2.46,12.1v1.85c0,.59-.21,1.09-.62,1.5s-.94.62-1.58.62h-29.22v.7c.06,2.05.45,3.95,1.19,5.68.73,1.73,1.82,3.12,3.26,4.18,1.44,1.06,3.15,1.58,5.15,1.58,1.64,0,3.02-.25,4.14-.75,1.11-.5,2.02-1.07,2.73-1.72s1.2-1.17,1.5-1.58c.53-.7.95-1.13,1.28-1.28.32-.15.81-.22,1.45-.22h7.57c.59,0,1.07.18,1.45.53.38.35.54.79.48,1.32-.06.94-.54,2.08-1.45,3.43-.91,1.35-2.22,2.67-3.92,3.96-1.7,1.29-3.83,2.36-6.38,3.21-2.55.85-5.47,1.28-8.76,1.28h0ZM430.75,144.55h19.45v-.26c0-2.29-.38-4.3-1.14-6.03-.76-1.73-1.88-3.08-3.34-4.05-1.47-.97-3.23-1.45-5.28-1.45s-3.81.48-5.28,1.45c-1.47.97-2.57,2.32-3.3,4.05-.73,1.73-1.1,3.74-1.1,6.03v.26h0Z"/>
    <path d="M473.17,171.39c-.59,0-1.09-.21-1.5-.62s-.62-.91-.62-1.5v-41.45c0-.65.21-1.17.62-1.58s.91-.62,1.5-.62h7.13c.59,0,1.1.21,1.54.62.44.41.66.94.66,1.58v3.61c1.35-1.88,3.09-3.31,5.24-4.31,2.14-1,4.62-1.5,7.44-1.5h3.61c.64,0,1.16.21,1.54.62s.57.91.57,1.5v6.34c0,.59-.19,1.09-.57,1.5s-.9.62-1.54.62h-6.86c-2.82,0-5,.78-6.56,2.33s-2.33,3.74-2.33,6.56v24.2c0,.59-.21,1.09-.62,1.5s-.94.62-1.58.62h-7.66v-.02Z"/>
  </g>
  <rect width="515.42" height="230.74" fill="none"/>
</svg>